<?plantuml 1.2026.2beta3?><svg xmlns="http://www.w3.org/2000/svg" xmlns:xlink="http://www.w3.org/1999/xlink" contentStyleType="text/css" data-diagram-type="DESCRIPTION" height="420px" preserveAspectRatio="none" style="width:279px;height:420px;background:#FFFFFF;" version="1.1" viewBox="0 0 279 420" width="279px" zoomAndPan="magnify"><defs/><g><!--cluster SmartTasks--><g class="cluster" data-qualified-name="SmartTasks" data-source-line="4" id="ent0003"><rect fill="none" height="407" rx="2.5" ry="2.5" style="stroke:#181818;stroke-width:1;" width="169.9" x="103.2" y="7"/><text fill="#000000" font-family="sans-serif" font-size="14" font-weight="bold" lengthAdjust="spacing" textLength="92.6885" x="141.8058" y="21.9951">SmartTasks</text></g><!--entity UC1--><g class="entity" data-qualified-name="SmartTasks.UC1" data-source-line="5" id="ent0004"><ellipse cx="188.1542" cy="383.0036" fill="#F1F1F1" rx="51.5742" ry="14.5236" style="stroke:#181818;stroke-width:0.5;"/><text fill="#000000" font-family="sans-serif" font-size="14" lengthAdjust="spacing" textLength="68.6943" x="153.8071" y="387.6521">Cadastrar</text></g><!--entity UC2--><g class="entity" data-qualified-name="SmartTasks.UC2" data-source-line="6" id="ent0005"><ellipse cx="188.1504" cy="319.0036" fill="#F1F1F1" rx="29.8804" ry="14.5236" style="stroke:#181818;stroke-width:0.5;"/><text fill="#000000" font-family="sans-serif" font-size="14" lengthAdjust="spacing" textLength="38.0146" x="169.1431" y="323.6521">Login</text></g><!--entity UC3--><g class="entity" data-qualified-name="SmartTasks.UC3" data-source-line="7" id="ent0006"><ellipse cx="188.1548" cy="253.997" fill="#F1F1F1" rx="64.6348" ry="15.327" style="stroke:#181818;stroke-width:0.5;"/><text fill="#000000" font-family="sans-serif" font-size="14" lengthAdjust="spacing" textLength="92.4971" x="141.9063" y="258.6454">Listar tarefas</text></g><!--entity UC4--><g class="entity" data-qualified-name="SmartTasks.UC4" data-source-line="8" id="ent0007"><ellipse cx="188.1456" cy="189.0036" fill="#F1F1F1" rx="59.6756" ry="14.5236" style="stroke:#181818;stroke-width:0.5;"/><text fill="#000000" font-family="sans-serif" font-size="14" lengthAdjust="spacing" textLength="80.1514" x="148.0699" y="193.6521">Criar tarefa</text></g><!--entity UC5--><g class="entity" data-qualified-name="SmartTasks.UC5" data-source-line="9" id="ent0008"><ellipse cx="188.1478" cy="122.9996" fill="#F1F1F1" rx="68.9478" ry="16.1896" style="stroke:#181818;stroke-width:0.5;"/><text fill="#000000" font-family="sans-serif" font-size="14" lengthAdjust="spacing" textLength="103.7148" x="136.2904" y="127.648">Concluir tarefa</text></g><!--entity UC6--><g class="entity" data-qualified-name="SmartTasks.UC6" data-source-line="10" id="ent0009"><ellipse cx="188.1482" cy="57.0036" fill="#F1F1F1" rx="37.0682" ry="14.5236" style="stroke:#181818;stroke-width:0.5;"/><text fill="#000000" font-family="sans-serif" font-size="14" lengthAdjust="spacing" textLength="48.1797" x="164.0583" y="61.6521">Logout</text></g><!--entity U--><g class="entity" data-qualified-name="U" data-source-line="2" id="ent0002"><ellipse cx="32.6021" cy="192.35" fill="#F1F1F1" rx="8" ry="8" style="stroke:#181818;stroke-width:0.5;"/><path d="M32.6021,200.35 L32.6021,227.35 M19.6021,208.35 L45.6021,208.35 M32.6021,227.35 L19.6021,242.35 M32.6021,227.35 L45.6021,242.35" fill="none" style="stroke:#181818;stroke-width:0.5;"/><text fill="#000000" font-family="sans-serif" font-size="14" lengthAdjust="spacing" textLength="53.2041" x="6" y="256.8451">Usu&#225;rio</text></g><!--link U to UC1--><g class="link" data-entity-1="ent0002" data-entity-2="ent0004" data-link-type="dependency" data-source-line="13" id="lnk10"><path d="M43.27,260.49 C52.3,289.06 68.48,327.08 95.2,351 C108.68,363.06 121.1768,368.9958 137.8868,373.7258" fill="none" id="U-to-UC1" style="stroke:#181818;stroke-width:1;"/><polygon fill="#181818" points="143.66,375.36,136.0897,369.06,138.849,373.9982,133.9108,376.7575,143.66,375.36" style="stroke:#181818;stroke-width:1;"/></g><!--link U to UC2--><g class="link" data-entity-1="ent0002" data-entity-2="ent0005" data-link-type="dependency" data-source-line="14" id="lnk11"><path d="M59.5,255.26 C69.64,266.56 82.01,278.48 95.2,287 C115.22,299.93 135.2685,306.8378 154.4685,311.7678" fill="none" id="U-to-UC2" style="stroke:#181818;stroke-width:1;"/><polygon fill="#181818" points="160.28,313.26,152.5576,307.1474,155.4371,312.0165,150.568,314.896,160.28,313.26" style="stroke:#181818;stroke-width:1;"/></g><!--link U to UC3--><g class="link" data-entity-1="ent0002" data-entity-2="ent0006" data-link-type="dependency" data-source-line="15" id="lnk12"><path d="M59.65,227.43 C81.21,231.92 106.5662,237.2058 132.7162,242.6558" fill="none" id="U-to-UC3" style="stroke:#181818;stroke-width:1;"/><polygon fill="#181818" points="138.59,243.88,130.5954,238.1279,133.6952,242.8599,128.9632,245.9596,138.59,243.88" style="stroke:#181818;stroke-width:1;"/></g><!--link U to UC4--><g class="link" data-entity-1="ent0002" data-entity-2="ent0007" data-link-type="dependency" data-source-line="16" id="lnk13"><path d="M59.65,216.4 C82.24,211.55 109.5638,205.6702 136.4238,199.9002" fill="none" id="U-to-UC4" style="stroke:#181818;stroke-width:1;"/><polygon fill="#181818" points="142.29,198.64,132.6506,196.6195,137.4015,199.6901,134.3308,204.441,142.29,198.64" style="stroke:#181818;stroke-width:1;"/></g><!--link U to UC5--><g class="link" data-entity-1="ent0002" data-entity-2="ent0008" data-link-type="dependency" data-source-line="17" id="lnk14"><path d="M59.59,188.88 C69.74,177.59 82.1,165.65 95.2,157 C109.27,147.72 120.5357,142.4801 136.0157,137.1601" fill="none" id="U-to-UC5" style="stroke:#181818;stroke-width:1;"/><polygon fill="#181818" points="141.69,135.21,131.8786,134.3523,136.9614,136.8351,134.4787,141.9179,141.69,135.21" style="stroke:#181818;stroke-width:1;"/></g><!--link U to UC6--><g class="link" data-entity-1="ent0002" data-entity-2="ent0009" data-link-type="dependency" data-source-line="18" id="lnk15"><path d="M42.61,183.55 C51.39,153.97 67.57,114.03 95.2,89 C111.24,74.48 128.3831,67.8269 147.3531,63.4569" fill="none" id="U-to-UC6" style="stroke:#181818;stroke-width:1;"/><polygon fill="#181818" points="153.2,62.11,143.5318,60.2324,148.3276,63.2324,145.3276,68.0283,153.2,62.11" style="stroke:#181818;stroke-width:1;"/></g><?plantuml-src NOuz3i8m34RtdCBAte7-ZInTsQ07iDAqH9H4ifq9SHZEmiKe42BQmTAJtcVxc-qe8078JMU1mP4rue9NQ2GGw9xZyq4kQ426NgctHZ_D5lJnYYGdv0jhk2c0oDOWBwB30La8wRlKxVxb8KpE9r6kX6D1WcNiY9mIrUekkHn8lbxvuCqStIRIRBw7ACcqwgvK3qMn_vJyKPcfobHdQZArBm00?></g></svg>