<?plantuml 1.2026.2beta3?><svg xmlns="http://www.w3.org/2000/svg" xmlns:xlink="http://www.w3.org/1999/xlink" contentStyleType="text/css" data-diagram-type="CLASS" height="410px" preserveAspectRatio="none" style="width:678px;height:410px;background:#FFFFFF;" version="1.1" viewBox="0 0 678 410" width="678px" zoomAndPan="magnify"><defs/><g><!--class User--><g class="entity" data-qualified-name="User" data-source-line="1" id="ent0002"><rect fill="#F1F1F1" height="113.1875" rx="2.5" ry="2.5" style="stroke:#181818;stroke-width:0.5;" width="114.4639" x="30.12" y="7"/><ellipse cx="67.8692" cy="23" fill="#ADD1B2" rx="11" ry="11" style="stroke:#181818;stroke-width:1;"/><path d="M70.8379,28.6406 Q70.2598,28.9375 69.6192,29.0781 Q68.9785,29.2344 68.2754,29.2344 Q65.7754,29.2344 64.4473,27.5938 Q63.1348,25.9375 63.1348,22.8125 Q63.1348,19.6875 64.4473,18.0313 Q65.7754,16.375 68.2754,16.375 Q68.9785,16.375 69.6192,16.5313 Q70.2754,16.6875 70.8379,16.9844 L70.8379,19.7031 Q70.2129,19.125 69.6192,18.8594 Q69.0254,18.5781 68.4004,18.5781 Q67.0567,18.5781 66.3692,19.6563 Q65.6817,20.7188 65.6817,22.8125 Q65.6817,24.9063 66.3692,25.9844 Q67.0567,27.0469 68.4004,27.0469 Q69.0254,27.0469 69.6192,26.7813 Q70.2129,26.5 70.8379,25.9219 L70.8379,28.6406 Z " fill="#000000"/><text fill="#000000" font-family="sans-serif" font-size="14" lengthAdjust="spacing" textLength="31.9102" x="86.9245" y="27.8467">User</text><line style="stroke:#181818;stroke-width:0.5;" x1="31.12" x2="143.5839" y1="39" y2="39"/><g data-visibility-modifier="PUBLIC_FIELD"><ellipse cx="41.12" cy="52.6484" fill="none" rx="3" ry="3" style="stroke:#038048;stroke-width:1;"/></g><text fill="#000000" font-family="sans-serif" font-size="14" lengthAdjust="spacing" textLength="51.3516" x="50.12" y="55.9951">Long id</text><g data-visibility-modifier="PUBLIC_FIELD"><ellipse cx="41.12" cy="68.9453" fill="none" rx="3" ry="3" style="stroke:#038048;stroke-width:1;"/></g><text fill="#000000" font-family="sans-serif" font-size="14" lengthAdjust="spacing" textLength="85.9209" x="50.12" y="72.292">String nome</text><g data-visibility-modifier="PUBLIC_FIELD"><ellipse cx="41.12" cy="85.2422" fill="none" rx="3" ry="3" style="stroke:#038048;stroke-width:1;"/></g><text fill="#000000" font-family="sans-serif" font-size="14" lengthAdjust="spacing" textLength="84.8408" x="50.12" y="88.5889">String email</text><g data-visibility-modifier="PUBLIC_FIELD"><ellipse cx="41.12" cy="101.5391" fill="none" rx="3" ry="3" style="stroke:#038048;stroke-width:1;"/></g><text fill="#000000" font-family="sans-serif" font-size="14" lengthAdjust="spacing" textLength="88.4639" x="50.12" y="104.8857">String senha</text><line style="stroke:#181818;stroke-width:0.5;" x1="31.12" x2="143.5839" y1="112.1875" y2="112.1875"/></g><!--class Task--><g class="entity" data-qualified-name="Task" data-source-line="8" id="ent0003"><rect fill="#F1F1F1" height="96.8906" rx="2.5" ry="2.5" style="stroke:#181818;stroke-width:0.5;" width="160.7021" x="7" y="197.19"/><ellipse cx="66.835" cy="213.19" fill="#ADD1B2" rx="11" ry="11" style="stroke:#181818;stroke-width:1;"/><path d="M69.8037,218.8306 Q69.2256,219.1275 68.585,219.2681 Q67.9443,219.4244 67.2412,219.4244 Q64.7412,219.4244 63.4131,217.7838 Q62.1006,216.1275 62.1006,213.0025 Q62.1006,209.8775 63.4131,208.2213 Q64.7412,206.565 67.2412,206.565 Q67.9443,206.565 68.585,206.7213 Q69.2412,206.8775 69.8037,207.1744 L69.8037,209.8931 Q69.1787,209.315 68.585,209.0494 Q67.9912,208.7681 67.3662,208.7681 Q66.0225,208.7681 65.335,209.8463 Q64.6475,210.9088 64.6475,213.0025 Q64.6475,215.0963 65.335,216.1744 Q66.0225,217.2369 67.3662,217.2369 Q67.9912,217.2369 68.585,216.9713 Q69.1787,216.69 69.8037,216.1119 L69.8037,218.8306 Z " fill="#000000"/><text fill="#000000" font-family="sans-serif" font-size="14" lengthAdjust="spacing" textLength="32.5322" x="87.335" y="218.0367">Task</text><line style="stroke:#181818;stroke-width:0.5;" x1="8" x2="166.7021" y1="229.19" y2="229.19"/><g data-visibility-modifier="PUBLIC_FIELD"><ellipse cx="18" cy="242.8384" fill="none" rx="3" ry="3" style="stroke:#038048;stroke-width:1;"/></g><text fill="#000000" font-family="sans-serif" font-size="14" lengthAdjust="spacing" textLength="51.3516" x="27" y="246.1851">Long id</text><g data-visibility-modifier="PUBLIC_FIELD"><ellipse cx="18" cy="259.1353" fill="none" rx="3" ry="3" style="stroke:#038048;stroke-width:1;"/></g><text fill="#000000" font-family="sans-serif" font-size="14" lengthAdjust="spacing" textLength="73.6025" x="27" y="262.482">String title</text><g data-visibility-modifier="PUBLIC_FIELD"><ellipse cx="18" cy="275.4322" fill="none" rx="3" ry="3" style="stroke:#038048;stroke-width:1;"/></g><text fill="#000000" font-family="sans-serif" font-size="14" lengthAdjust="spacing" textLength="134.7021" x="27" y="278.7789">boolean completed</text><line style="stroke:#181818;stroke-width:0.5;" x1="8" x2="166.7021" y1="286.0806" y2="286.0806"/></g><!--class AuthController--><g class="entity" data-qualified-name="AuthController" data-source-line="16" id="ent0005"><rect fill="#F1F1F1" height="48" rx="2.5" ry="2.5" style="stroke:#181818;stroke-width:0.5;" width="133.9854" x="202.36" y="221.63"/><ellipse cx="217.36" cy="237.63" fill="#ADD1B2" rx="11" ry="11" style="stroke:#181818;stroke-width:1;"/><path d="M220.3288,243.2706 Q219.7506,243.5675 219.11,243.7081 Q218.4694,243.8644 217.7663,243.8644 Q215.2663,243.8644 213.9381,242.2238 Q212.6256,240.5675 212.6256,237.4425 Q212.6256,234.3175 213.9381,232.6613 Q215.2663,231.005 217.7663,231.005 Q218.4694,231.005 219.11,231.1613 Q219.7663,231.3175 220.3288,231.6144 L220.3288,234.3331 Q219.7038,233.755 219.11,233.4894 Q218.5163,233.2081 217.8913,233.2081 Q216.5475,233.2081 215.86,234.2863 Q215.1725,235.3488 215.1725,237.4425 Q215.1725,239.5363 215.86,240.6144 Q216.5475,241.6769 217.8913,241.6769 Q218.5163,241.6769 219.11,241.4113 Q219.7038,241.13 220.3288,240.5519 L220.3288,243.2706 Z " fill="#000000"/><text fill="#000000" font-family="sans-serif" font-size="14" lengthAdjust="spacing" textLength="101.9854" x="231.36" y="242.4767">AuthController</text><line style="stroke:#181818;stroke-width:0.5;" x1="203.36" x2="335.3454" y1="253.63" y2="253.63"/><line style="stroke:#181818;stroke-width:0.5;" x1="203.36" x2="335.3454" y1="261.63" y2="261.63"/></g><!--class TaskController--><g class="entity" data-qualified-name="TaskController" data-source-line="17" id="ent0006"><rect fill="#F1F1F1" height="48" rx="2.5" ry="2.5" style="stroke:#181818;stroke-width:0.5;" width="133.7051" x="534.5" y="39.6"/><ellipse cx="549.5" cy="55.6" fill="#ADD1B2" rx="11" ry="11" style="stroke:#181818;stroke-width:1;"/><path d="M552.4688,61.2406 Q551.8906,61.5375 551.25,61.6781 Q550.6094,61.8344 549.9063,61.8344 Q547.4063,61.8344 546.0781,60.1937 Q544.7656,58.5375 544.7656,55.4125 Q544.7656,52.2875 546.0781,50.6312 Q547.4063,48.975 549.9063,48.975 Q550.6094,48.975 551.25,49.1312 Q551.9063,49.2875 552.4688,49.5844 L552.4688,52.3031 Q551.8438,51.725 551.25,51.4594 Q550.6563,51.1781 550.0313,51.1781 Q548.6875,51.1781 548,52.2562 Q547.3125,53.3187 547.3125,55.4125 Q547.3125,57.5062 548,58.5844 Q548.6875,59.6469 550.0313,59.6469 Q550.6563,59.6469 551.25,59.3812 Q551.8438,59.1 552.4688,58.5219 L552.4688,61.2406 Z " fill="#000000"/><text fill="#000000" font-family="sans-serif" font-size="14" lengthAdjust="spacing" textLength="101.7051" x="563.5" y="60.4467">TaskController</text><line style="stroke:#181818;stroke-width:0.5;" x1="535.5" x2="667.2051" y1="71.6" y2="71.6"/><line style="stroke:#181818;stroke-width:0.5;" x1="535.5" x2="667.2051" y1="79.6" y2="79.6"/></g><!--class UserRepository--><g class="entity" data-qualified-name="UserRepository" data-source-line="18" id="ent0007"><rect fill="#F1F1F1" height="48" rx="2.5" ry="2.5" style="stroke:#181818;stroke-width:0.5;" width="138.9824" x="199.86" y="355.08"/><ellipse cx="214.86" cy="371.08" fill="#ADD1B2" rx="11" ry="11" style="stroke:#181818;stroke-width:1;"/><path d="M217.8288,376.7206 Q217.2506,377.0175 216.61,377.1581 Q215.9694,377.3144 215.2663,377.3144 Q212.7663,377.3144 211.4381,375.6738 Q210.1256,374.0175 210.1256,370.8925 Q210.1256,367.7675 211.4381,366.1113 Q212.7663,364.455 215.2663,364.455 Q215.9694,364.455 216.61,364.6113 Q217.2663,364.7675 217.8288,365.0644 L217.8288,367.7831 Q217.2038,367.205 216.61,366.9394 Q216.0163,366.6581 215.3913,366.6581 Q214.0475,366.6581 213.36,367.7363 Q212.6725,368.7988 212.6725,370.8925 Q212.6725,372.9863 213.36,374.0644 Q214.0475,375.1269 215.3913,375.1269 Q216.0163,375.1269 216.61,374.8613 Q217.2038,374.58 217.8288,374.0019 L217.8288,376.7206 Z " fill="#000000"/><text fill="#000000" font-family="sans-serif" font-size="14" lengthAdjust="spacing" textLength="106.9824" x="228.86" y="375.9267">UserRepository</text><line style="stroke:#181818;stroke-width:0.5;" x1="200.86" x2="337.8424" y1="387.08" y2="387.08"/><line style="stroke:#181818;stroke-width:0.5;" x1="200.86" x2="337.8424" y1="395.08" y2="395.08"/></g><!--class TaskRepository--><g class="entity" data-qualified-name="TaskRepository" data-source-line="19" id="ent0008"><rect fill="#F1F1F1" height="48" rx="2.5" ry="2.5" style="stroke:#181818;stroke-width:0.5;" width="139.6045" x="531.55" y="221.63"/><ellipse cx="546.55" cy="237.63" fill="#ADD1B2" rx="11" ry="11" style="stroke:#181818;stroke-width:1;"/><path d="M549.5188,243.2706 Q548.9406,243.5675 548.3,243.7081 Q547.6594,243.8644 546.9563,243.8644 Q544.4563,243.8644 543.1281,242.2238 Q541.8156,240.5675 541.8156,237.4425 Q541.8156,234.3175 543.1281,232.6613 Q544.4563,231.005 546.9563,231.005 Q547.6594,231.005 548.3,231.1613 Q548.9563,231.3175 549.5188,231.6144 L549.5188,234.3331 Q548.8938,233.755 548.3,233.4894 Q547.7063,233.2081 547.0813,233.2081 Q545.7375,233.2081 545.05,234.2863 Q544.3625,235.3488 544.3625,237.4425 Q544.3625,239.5363 545.05,240.6144 Q545.7375,241.6769 547.0813,241.6769 Q547.7063,241.6769 548.3,241.4113 Q548.8938,241.13 549.5188,240.5519 L549.5188,243.2706 Z " fill="#000000"/><text fill="#000000" font-family="sans-serif" font-size="14" lengthAdjust="spacing" textLength="107.6045" x="560.55" y="242.4767">TaskRepository</text><line style="stroke:#181818;stroke-width:0.5;" x1="532.55" x2="670.1545" y1="253.63" y2="253.63"/><line style="stroke:#181818;stroke-width:0.5;" x1="532.55" x2="670.1545" y1="261.63" y2="261.63"/></g><!--class JwtUtil--><g class="entity" data-qualified-name="JwtUtil" data-source-line="20" id="ent0009"><rect fill="#F1F1F1" height="48" rx="2.5" ry="2.5" style="stroke:#181818;stroke-width:0.5;" width="76.584" x="384.06" y="355.08"/><ellipse cx="399.06" cy="371.08" fill="#ADD1B2" rx="11" ry="11" style="stroke:#181818;stroke-width:1;"/><path d="M402.0288,376.7206 Q401.4506,377.0175 400.81,377.1581 Q400.1694,377.3144 399.4663,377.3144 Q396.9663,377.3144 395.6381,375.6738 Q394.3256,374.0175 394.3256,370.8925 Q394.3256,367.7675 395.6381,366.1113 Q396.9663,364.455 399.4663,364.455 Q400.1694,364.455 400.81,364.6113 Q401.4663,364.7675 402.0288,365.0644 L402.0288,367.7831 Q401.4038,367.205 400.81,366.9394 Q400.2163,366.6581 399.5913,366.6581 Q398.2475,366.6581 397.56,367.7363 Q396.8725,368.7988 396.8725,370.8925 Q396.8725,372.9863 397.56,374.0644 Q398.2475,375.1269 399.5913,375.1269 Q400.2163,375.1269 400.81,374.8613 Q401.4038,374.58 402.0288,374.0019 L402.0288,376.7206 Z " fill="#000000"/><text fill="#000000" font-family="sans-serif" font-size="14" lengthAdjust="spacing" textLength="44.584" x="413.06" y="375.9267">JwtUtil</text><line style="stroke:#181818;stroke-width:0.5;" x1="385.06" x2="459.644" y1="387.08" y2="387.08"/><line style="stroke:#181818;stroke-width:0.5;" x1="385.06" x2="459.644" y1="395.08" y2="395.08"/></g><!--class JwtAuthFilter--><g class="entity" data-qualified-name="JwtAuthFilter" data-source-line="21" id="ent0010"><rect fill="#F1F1F1" height="48" rx="2.5" ry="2.5" style="stroke:#181818;stroke-width:0.5;" width="121.5713" x="371.57" y="221.63"/><ellipse cx="386.57" cy="237.63" fill="#ADD1B2" rx="11" ry="11" style="stroke:#181818;stroke-width:1;"/><path d="M389.5388,243.2706 Q388.9606,243.5675 388.32,243.7081 Q387.6794,243.8644 386.9763,243.8644 Q384.4763,243.8644 383.1481,242.2238 Q381.8356,240.5675 381.8356,237.4425 Q381.8356,234.3175 383.1481,232.6613 Q384.4763,231.005 386.9763,231.005 Q387.6794,231.005 388.32,231.1613 Q388.9763,231.3175 389.5388,231.6144 L389.5388,234.3331 Q388.9138,233.755 388.32,233.4894 Q387.7263,233.2081 387.1013,233.2081 Q385.7575,233.2081 385.07,234.2863 Q384.3825,235.3488 384.3825,237.4425 Q384.3825,239.5363 385.07,240.6144 Q385.7575,241.6769 387.1013,241.6769 Q387.7263,241.6769 388.32,241.4113 Q388.9138,241.13 389.5388,240.5519 L389.5388,243.2706 Z " fill="#000000"/><text fill="#000000" font-family="sans-serif" font-size="14" lengthAdjust="spacing" textLength="89.5713" x="400.57" y="242.4767">JwtAuthFilter</text><line style="stroke:#181818;stroke-width:0.5;" x1="372.57" x2="492.1413" y1="253.63" y2="253.63"/><line style="stroke:#181818;stroke-width:0.5;" x1="372.57" x2="492.1413" y1="261.63" y2="261.63"/></g><!--class SecurityConfig--><g class="entity" data-qualified-name="SecurityConfig" data-source-line="22" id="ent0011"><rect fill="#F1F1F1" height="48" rx="2.5" ry="2.5" style="stroke:#181818;stroke-width:0.5;" width="134.4092" x="365.15" y="39.6"/><ellipse cx="380.15" cy="55.6" fill="#ADD1B2" rx="11" ry="11" style="stroke:#181818;stroke-width:1;"/><path d="M383.1188,61.2406 Q382.5406,61.5375 381.9,61.6781 Q381.2594,61.8344 380.5563,61.8344 Q378.0563,61.8344 376.7281,60.1937 Q375.4156,58.5375 375.4156,55.4125 Q375.4156,52.2875 376.7281,50.6312 Q378.0563,48.975 380.5563,48.975 Q381.2594,48.975 381.9,49.1312 Q382.5563,49.2875 383.1188,49.5844 L383.1188,52.3031 Q382.4938,51.725 381.9,51.4594 Q381.3063,51.1781 380.6813,51.1781 Q379.3375,51.1781 378.65,52.2562 Q377.9625,53.3187 377.9625,55.4125 Q377.9625,57.5062 378.65,58.5844 Q379.3375,59.6469 380.6813,59.6469 Q381.3063,59.6469 381.9,59.3812 Q382.4938,59.1 383.1188,58.5219 L383.1188,61.2406 Z " fill="#000000"/><text fill="#000000" font-family="sans-serif" font-size="14" lengthAdjust="spacing" textLength="102.4092" x="394.15" y="60.4467">SecurityConfig</text><line style="stroke:#181818;stroke-width:0.5;" x1="366.15" x2="498.5592" y1="71.6" y2="71.6"/><line style="stroke:#181818;stroke-width:0.5;" x1="366.15" x2="498.5592" y1="79.6" y2="79.6"/></g><!--link User to Task--><g class="link" data-entity-1="ent0002" data-entity-2="ent0003" data-link-type="dependency" data-source-line="14" id="lnk4"><path codeLine="14" d="M87.35,120.57 C87.35,145.04 87.35,167.44 87.35,190.88" fill="none" id="User-to-Task" style="stroke:#181818;stroke-width:1;"/><polygon fill="#181818" points="87.35,196.88,91.35,187.88,87.35,191.88,83.35,187.88,87.35,196.88" style="stroke:#181818;stroke-width:1;"/><polygon fill="#000000" points="92.35,163.7564,95.2889,154.7113,89.4111,154.7113,92.35,163.7564" style="stroke:#000000;stroke-width:1;"/><text fill="#000000" font-family="sans-serif" font-size="13" lengthAdjust="spacing" textLength="41.6025" x="101.35" y="163.2569">possui</text><text fill="#000000" font-family="sans-serif" font-size="13" lengthAdjust="spacing" textLength="8.271" x="78.9029" y="140.0996">1</text><text fill="#000000" font-family="sans-serif" font-size="13" lengthAdjust="spacing" textLength="23.0356" x="62.7352" y="186.0453">0..*</text></g><!--link AuthController to UserRepository--><g class="link" data-entity-1="ent0005" data-entity-2="ent0007" data-link-type="dependency" data-source-line="24" id="lnk12"><path codeLine="24" d="M269.35,270.13 C269.35,294.06 269.35,324.93 269.35,348.78" fill="none" id="AuthController-to-UserRepository" style="stroke:#181818;stroke-width:1;"/><polygon fill="#181818" points="269.35,354.78,273.35,345.78,269.35,349.78,265.35,345.78,269.35,354.78" style="stroke:#181818;stroke-width:1;"/></g><!--link AuthController to JwtUtil--><g class="link" data-entity-1="ent0005" data-entity-2="ent0009" data-link-type="dependency" data-source-line="25" id="lnk13"><path codeLine="25" d="M296.7,270.13 C324.55,294.06 362.919,327.02 390.679,350.87" fill="none" id="AuthController-to-JwtUtil" style="stroke:#181818;stroke-width:1;"/><polygon fill="#181818" points="395.23,354.78,391.0101,345.881,391.4375,351.5217,385.7968,351.949,395.23,354.78" style="stroke:#181818;stroke-width:1;"/></g><!--link TaskController to TaskRepository--><g class="link" data-entity-1="ent0006" data-entity-2="ent0008" data-link-type="dependency" data-source-line="26" id="lnk14"><path codeLine="26" d="M601.35,87.76 C601.35,122.24 601.35,180.68 601.35,215.27" fill="none" id="TaskController-to-TaskRepository" style="stroke:#181818;stroke-width:1;"/><polygon fill="#181818" points="601.35,221.27,605.35,212.27,601.35,216.27,597.35,212.27,601.35,221.27" style="stroke:#181818;stroke-width:1;"/></g><!--link SecurityConfig to JwtAuthFilter--><g class="link" data-entity-1="ent0011" data-entity-2="ent0010" data-link-type="dependency" data-source-line="28" id="lnk15"><path codeLine="28" d="M432.35,87.76 C432.35,122.24 432.35,180.68 432.35,215.27" fill="none" id="SecurityConfig-to-JwtAuthFilter" style="stroke:#181818;stroke-width:1;"/><polygon fill="#181818" points="432.35,221.27,436.35,212.27,432.35,216.27,428.35,212.27,432.35,221.27" style="stroke:#181818;stroke-width:1;"/></g><!--link JwtAuthFilter to JwtUtil--><g class="link" data-entity-1="ent0010" data-entity-2="ent0009" data-link-type="dependency" data-source-line="29" id="lnk16"><path codeLine="29" d="M430.56,270.13 C428.74,294.06 426.3965,324.9474 424.5765,348.7974" fill="none" id="JwtAuthFilter-to-JwtUtil" style="stroke:#181818;stroke-width:1;"/><polygon fill="#181818" points="424.12,354.78,428.7932,346.1104,424.5004,349.7945,420.8164,345.5017,424.12,354.78" style="stroke:#181818;stroke-width:1;"/></g><?plantuml-src TO_B2i8m44Nt-OgXIwMYMnU222x4bOyFYEseWscc95D4n7-tZRIaLNUvoSmvDvdHtiFHeuEd0XXlsLw0ykQu5qTri5nW5B7GPABiqLwrUYcL1T91-zi_af2OW3en6zGMCYvAWu9vinyw9BC4qdG1oNGo6IKVsXnAzhuYMBIIPINN5LjnR0owoFnrsK1tME-Ji7j4ar-NcxiSfVvPbnh9cenqh3rcbIDvr98pNPJgjmYr1xeV4wsctpOy3Mgflg_TZchrKan_0m00?></g></svg>