<?plantuml 1.2026.2beta3?><svg xmlns="http://www.w3.org/2000/svg" xmlns:xlink="http://www.w3.org/1999/xlink" contentStyleType="text/css" data-diagram-type="SEQUENCE" height="515px" preserveAspectRatio="none" style="width:709px;height:515px;background:#FFFFFF;" version="1.1" viewBox="0 0 709 515" width="709px" zoomAndPan="magnify"><defs/><g><g class="participant-lifeline" data-entity-uid="part1" data-qualified-name="U" id="part1-lifeline"><g><title>Usuario</title><rect fill="#000000" fill-opacity="0.00000" height="353.4609" width="8" x="30.6021" y="81.2969"/><line style="stroke:#181818;stroke-width:0.5;stroke-dasharray:5,5;" x1="34" x2="34" y1="81.2969" y2="434.7578"/></g></g><g class="participant-lifeline" data-entity-uid="part2" data-qualified-name="F" id="part2-lifeline"><g><title>Front .React.</title><rect fill="#000000" fill-opacity="0.00000" height="353.4609" width="8" x="199.3984" y="81.2969"/><line style="stroke:#181818;stroke-width:0.5;stroke-dasharray:5,5;" x1="203.29" x2="203.29" y1="81.2969" y2="434.7578"/></g></g><g class="participant-lifeline" data-entity-uid="part3" data-qualified-name="B" id="part3-lifeline"><g><title>Backend .Spring.</title><rect fill="#000000" fill-opacity="0.00000" height="353.4609" width="8" x="486.6548" y="81.2969"/><line style="stroke:#181818;stroke-width:0.5;stroke-dasharray:5,5;" x1="490.1978" x2="490.1978" y1="81.2969" y2="434.7578"/></g></g><g class="participant-lifeline" data-entity-uid="part4" data-qualified-name="DB" id="part4-lifeline"><g><title>MySQL</title><rect fill="#000000" fill-opacity="0.00000" height="353.4609" width="8" x="670.4634" y="81.2969"/><line style="stroke:#181818;stroke-width:0.5;stroke-dasharray:5,5;" x1="674.4282" x2="674.4282" y1="81.2969" y2="434.7578"/></g></g><g class="participant participant-head" data-entity-uid="part1" data-qualified-name="U" id="part1-head"><text fill="#000000" font-family="sans-serif" font-size="14" lengthAdjust="spacing" textLength="53.2041" x="5" y="77.9951">Usuario</text><ellipse cx="34.6021" cy="13.5" fill="#E2E2F0" rx="8" ry="8" style="stroke:#181818;stroke-width:0.5;"/><path d="M34.6021,21.5 L34.6021,48.5 M21.6021,29.5 L47.6021,29.5 M34.6021,48.5 L21.6021,63.5 M34.6021,48.5 L47.6021,63.5" fill="none" style="stroke:#181818;stroke-width:0.5;"/></g><g class="participant participant-tail" data-entity-uid="part1" data-qualified-name="U" id="part1-tail"><text fill="#000000" font-family="sans-serif" font-size="14" lengthAdjust="spacing" textLength="53.2041" x="5" y="446.7529">Usuario</text><ellipse cx="34.6021" cy="458.5547" fill="#E2E2F0" rx="8" ry="8" style="stroke:#181818;stroke-width:0.5;"/><path d="M34.6021,466.5547 L34.6021,493.5547 M21.6021,474.5547 L47.6021,474.5547 M34.6021,493.5547 L21.6021,508.5547 M34.6021,493.5547 L47.6021,508.5547" fill="none" style="stroke:#181818;stroke-width:0.5;"/></g><g class="participant participant-head" data-entity-uid="part2" data-qualified-name="F" id="part2-head"><rect fill="#E2E2F0" height="30.2969" rx="2.5" ry="2.5" style="stroke:#181818;stroke-width:0.5;" width="106.2168" x="150.29" y="50"/><text fill="#000000" font-family="sans-serif" font-size="14" lengthAdjust="spacing" textLength="92.2168" x="157.29" y="69.9951">Front (React)</text></g><g class="participant participant-tail" data-entity-uid="part2" data-qualified-name="F" id="part2-tail"><rect fill="#E2E2F0" height="30.2969" rx="2.5" ry="2.5" style="stroke:#181818;stroke-width:0.5;" width="106.2168" x="150.29" y="433.7578"/><text fill="#000000" font-family="sans-serif" font-size="14" lengthAdjust="spacing" textLength="92.2168" x="157.29" y="453.7529">Front (React)</text></g><g class="participant participant-head" data-entity-uid="part3" data-qualified-name="B" id="part3-head"><rect fill="#E2E2F0" height="30.2969" rx="2.5" ry="2.5" style="stroke:#181818;stroke-width:0.5;" width="134.9141" x="423.1978" y="50"/><text fill="#000000" font-family="sans-serif" font-size="14" lengthAdjust="spacing" textLength="120.9141" x="430.1978" y="69.9951">Backend (Spring)</text></g><g class="participant participant-tail" data-entity-uid="part3" data-qualified-name="B" id="part3-tail"><rect fill="#E2E2F0" height="30.2969" rx="2.5" ry="2.5" style="stroke:#181818;stroke-width:0.5;" width="134.9141" x="423.1978" y="433.7578"/><text fill="#000000" font-family="sans-serif" font-size="14" lengthAdjust="spacing" textLength="120.9141" x="430.1978" y="453.7529">Backend (Spring)</text></g><g class="participant participant-head" data-entity-uid="part4" data-qualified-name="DB" id="part4-head"><text fill="#000000" font-family="sans-serif" font-size="14" lengthAdjust="spacing" textLength="48.0703" x="647.4282" y="77.9951">MySQL</text><path d="M656.4634,29 C656.4634,19 674.4634,19 674.4634,19 C674.4634,19 692.4634,19 692.4634,29 L692.4634,55 C692.4634,65 674.4634,65 674.4634,65 C674.4634,65 656.4634,65 656.4634,55 L656.4634,29" fill="#E2E2F0" style="stroke:#181818;stroke-width:0.5;"/><path d="M656.4634,29 C656.4634,39 674.4634,39 674.4634,39 C674.4634,39 692.4634,39 692.4634,29" fill="none" style="stroke:#181818;stroke-width:0.5;"/></g><g class="participant participant-tail" data-entity-uid="part4" data-qualified-name="DB" id="part4-tail"><text fill="#000000" font-family="sans-serif" font-size="14" lengthAdjust="spacing" textLength="48.0703" x="647.4282" y="446.7529">MySQL</text><path d="M656.4634,460.0547 C656.4634,450.0547 674.4634,450.0547 674.4634,450.0547 C674.4634,450.0547 692.4634,450.0547 692.4634,460.0547 L692.4634,486.0547 C692.4634,496.0547 674.4634,496.0547 674.4634,496.0547 C674.4634,496.0547 656.4634,496.0547 656.4634,486.0547 L656.4634,460.0547" fill="#E2E2F0" style="stroke:#181818;stroke-width:0.5;"/><path d="M656.4634,460.0547 C656.4634,470.0547 674.4634,470.0547 674.4634,470.0547 C674.4634,470.0547 692.4634,470.0547 692.4634,460.0547" fill="none" style="stroke:#181818;stroke-width:0.5;"/></g><g class="message" data-entity-1="part1" data-entity-2="part2" id="msg1"><polygon fill="#181818" points="191.3984,108.4297,201.3984,112.4297,191.3984,116.4297,195.3984,112.4297" style="stroke:#181818;stroke-width:1;"/><line style="stroke:#181818;stroke-width:1;" x1="34.6021" x2="197.3984" y1="112.4297" y2="112.4297"/><text fill="#000000" font-family="sans-serif" font-size="13" lengthAdjust="spacing" textLength="144.7964" x="41.6021" y="107.3638">preenche email/senha</text></g><g class="message" data-entity-1="part2" data-entity-2="part3" id="msg2"><polygon fill="#181818" points="478.6548,137.5625,488.6548,141.5625,478.6548,145.5625,482.6548,141.5625" style="stroke:#181818;stroke-width:1;"/><line style="stroke:#181818;stroke-width:1;" x1="203.3984" x2="484.6548" y1="141.5625" y2="141.5625"/><text fill="#000000" font-family="sans-serif" font-size="13" lengthAdjust="spacing" textLength="205.9751" x="210.3984" y="136.4966">POST /auth/login (email, senha)</text></g><g class="message" data-entity-1="part3" data-entity-2="part4" id="msg3"><polygon fill="#181818" points="662.4634,166.6953,672.4634,170.6953,662.4634,174.6953,666.4634,170.6953" style="stroke:#181818;stroke-width:1;"/><line style="stroke:#181818;stroke-width:1;" x1="490.6548" x2="668.4634" y1="170.6953" y2="170.6953"/><text fill="#000000" font-family="sans-serif" font-size="13" lengthAdjust="spacing" textLength="141.4893" x="497.6548" y="165.6294">SELECT user by email</text></g><g class="message" data-entity-1="part4" data-entity-2="part3" id="msg4"><polygon fill="#181818" points="501.6548,195.8281,491.6548,199.8281,501.6548,203.8281,497.6548,199.8281" style="stroke:#181818;stroke-width:1;"/><line style="stroke:#181818;stroke-width:1;stroke-dasharray:2,2;" x1="495.6548" x2="673.4634" y1="199.8281" y2="199.8281"/><text fill="#000000" font-family="sans-serif" font-size="13" lengthAdjust="spacing" textLength="28.355" x="507.6548" y="194.7622">user</text></g><g class="message" data-entity-1="part3" data-entity-2="part2" id="msg5"><polygon fill="#181818" points="214.3984,224.9609,204.3984,228.9609,214.3984,232.9609,210.3984,228.9609" style="stroke:#181818;stroke-width:1;"/><line style="stroke:#181818;stroke-width:1;stroke-dasharray:2,2;" x1="208.3984" x2="489.6548" y1="228.9609" y2="228.9609"/><text fill="#000000" font-family="sans-serif" font-size="13" lengthAdjust="spacing" textLength="126.4199" x="220.3984" y="223.895">200 {token, email}</text></g><g class="message" data-entity-1="part1" data-entity-2="part2" id="msg6"><polygon fill="#181818" points="191.3984,254.0938,201.3984,258.0938,191.3984,262.0938,195.3984,258.0938" style="stroke:#181818;stroke-width:1;"/><line style="stroke:#181818;stroke-width:1;" x1="34.6021" x2="197.3984" y1="258.0938" y2="258.0938"/><text fill="#000000" font-family="sans-serif" font-size="13" lengthAdjust="spacing" textLength="104.4507" x="41.6021" y="253.0278">abre Dashboard</text></g><g class="message" data-entity-1="part2" data-entity-2="part3" id="msg7"><polygon fill="#181818" points="478.6548,283.2266,488.6548,287.2266,478.6548,291.2266,482.6548,287.2266" style="stroke:#181818;stroke-width:1;"/><line style="stroke:#181818;stroke-width:1;" x1="203.3984" x2="484.6548" y1="287.2266" y2="287.2266"/><text fill="#000000" font-family="sans-serif" font-size="13" lengthAdjust="spacing" textLength="263.2563" x="210.3984" y="282.1606">GET /tasks (Authorization: Bearer token)</text></g><g class="message" data-entity-1="part3" data-entity-2="part3" id="msg8"><line style="stroke:#181818;stroke-width:1;" x1="490.6548" x2="532.6548" y1="316.3594" y2="316.3594"/><line style="stroke:#181818;stroke-width:1;" x1="532.6548" x2="532.6548" y1="316.3594" y2="329.3594"/><line style="stroke:#181818;stroke-width:1;" x1="491.6548" x2="532.6548" y1="329.3594" y2="329.3594"/><polygon fill="#181818" points="501.6548,325.3594,491.6548,329.3594,501.6548,333.3594,497.6548,329.3594" style="stroke:#181818;stroke-width:1;"/><text fill="#000000" font-family="sans-serif" font-size="13" lengthAdjust="spacing" textLength="167.356" x="497.6548" y="311.2935">JwtAuthFilter valida token</text></g><g class="message" data-entity-1="part3" data-entity-2="part4" id="msg9"><polygon fill="#181818" points="662.4634,354.4922,672.4634,358.4922,662.4634,362.4922,666.4634,358.4922" style="stroke:#181818;stroke-width:1;"/><line style="stroke:#181818;stroke-width:1;" x1="490.6548" x2="668.4634" y1="358.4922" y2="358.4922"/><text fill="#000000" font-family="sans-serif" font-size="13" lengthAdjust="spacing" textLength="159.8086" x="497.6548" y="353.4263">SELECT tasks do usu&#225;rio</text></g><g class="message" data-entity-1="part4" data-entity-2="part3" id="msg10"><polygon fill="#181818" points="501.6548,383.625,491.6548,387.625,501.6548,391.625,497.6548,387.625" style="stroke:#181818;stroke-width:1;"/><line style="stroke:#181818;stroke-width:1;stroke-dasharray:2,2;" x1="495.6548" x2="673.4634" y1="387.625" y2="387.625"/><text fill="#000000" font-family="sans-serif" font-size="13" lengthAdjust="spacing" textLength="27.0601" x="507.6548" y="382.5591">lista</text></g><g class="message" data-entity-1="part3" data-entity-2="part2" id="msg11"><polygon fill="#181818" points="214.3984,412.7578,204.3984,416.7578,214.3984,420.7578,210.3984,416.7578" style="stroke:#181818;stroke-width:1;"/><line style="stroke:#181818;stroke-width:1;stroke-dasharray:2,2;" x1="208.3984" x2="489.6548" y1="416.7578" y2="416.7578"/><text fill="#000000" font-family="sans-serif" font-size="13" lengthAdjust="spacing" textLength="73.2266" x="220.3984" y="411.6919">200 [tasks]</text></g><?plantuml-src PP5DJiCm44RtFiMegrHgbOfb5qYO94YeY9yqAyHYabZDgC6Ex0ce80x3MRWOTbo90YlB_jvyyoHZmyP2vKQqP00TL690ozJGW9fXLbZZZ-H1OSFpMG2Atu34Pgzq2qavMDAxo4ZH8cEDJi7ivb3URwRNJ0fHmV8S2bZ3O9NIJQT0FIFrgLEwGr64LFhqxhRSGeeZTsblTgGXcR05JDnSo01cWIppJNwvXT4f2_KXjWcVB8zD8H3n6jQUhLRmpiOhBoBxSUA4jLMGeUjgWxRziRdAlGoZspj8BhoJiVI6J4QlGIgqVlFKUDGA4zUl7C22UlRf2_RKOeJ-gyVYrdZLyUlJVyEfVa-EyO__upJnz0q0?></g></svg>